<mxfile host="app.diagrams.net" agent="Mozilla/5.0 (Windows NT 10.0; Win64; x64) AppleWebKit/537.36 (KHTML, like Gecko) Chrome/131.0.0.0 Safari/537.36" version="24.7.6">
  <diagram name="Page-1" id="nB5XLk16X9K5xAFEUF7w">
    <mxGraphModel dx="833" dy="742" grid="1" gridSize="10" guides="1" tooltips="1" connect="1" arrows="1" fold="1" page="1" pageScale="1" pageWidth="1169" pageHeight="827" math="0" shadow="0">
      <root>
        <mxCell id="0" />
        <mxCell id="1" parent="0" />
        <mxCell id="SSzirsHwd83_Kd0qUwTy-54" value="" style="rounded=0;whiteSpace=wrap;html=1;strokeColor=none;fillColor=#E6E6E6;" vertex="1" parent="1">
          <mxGeometry x="540" y="200" width="500" height="20" as="geometry" />
        </mxCell>
        <mxCell id="SSzirsHwd83_Kd0qUwTy-1" value="" style="html=1;verticalLabelPosition=bottom;align=center;labelBackgroundColor=#ffffff;verticalAlign=top;strokeWidth=2;strokeColor=#000000;shadow=0;dashed=0;shape=mxgraph.ios7.icons.location_2;rotation=-45;" vertex="1" parent="1">
          <mxGeometry x="1065" y="620" width="30" height="30" as="geometry" />
        </mxCell>
        <mxCell id="SSzirsHwd83_Kd0qUwTy-2" value="N" style="text;html=1;align=center;verticalAlign=middle;whiteSpace=wrap;rounded=0;" vertex="1" parent="1">
          <mxGeometry x="1067.5" y="590" width="25" height="30" as="geometry" />
        </mxCell>
        <mxCell id="SSzirsHwd83_Kd0qUwTy-3" value="E" style="text;html=1;align=center;verticalAlign=middle;whiteSpace=wrap;rounded=0;" vertex="1" parent="1">
          <mxGeometry x="1092.5" y="620" width="25" height="30" as="geometry" />
        </mxCell>
        <mxCell id="SSzirsHwd83_Kd0qUwTy-4" value="S" style="text;html=1;align=center;verticalAlign=middle;whiteSpace=wrap;rounded=0;" vertex="1" parent="1">
          <mxGeometry x="1067.5" y="650" width="25" height="30" as="geometry" />
        </mxCell>
        <mxCell id="SSzirsHwd83_Kd0qUwTy-5" value="W" style="text;html=1;align=center;verticalAlign=middle;whiteSpace=wrap;rounded=0;" vertex="1" parent="1">
          <mxGeometry x="1040" y="620" width="25" height="30" as="geometry" />
        </mxCell>
        <mxCell id="SSzirsHwd83_Kd0qUwTy-55" value="" style="rounded=0;whiteSpace=wrap;html=1;strokeColor=none;fillColor=#E6E6E6;" vertex="1" parent="1">
          <mxGeometry x="540" y="260" width="500" height="20" as="geometry" />
        </mxCell>
        <mxCell id="SSzirsHwd83_Kd0qUwTy-56" value="" style="rounded=0;whiteSpace=wrap;html=1;strokeColor=none;fillColor=#E6E6E6;" vertex="1" parent="1">
          <mxGeometry x="540" y="320" width="500" height="20" as="geometry" />
        </mxCell>
        <mxCell id="SSzirsHwd83_Kd0qUwTy-57" value="" style="rounded=0;whiteSpace=wrap;html=1;strokeColor=none;fillColor=#E6E6E6;" vertex="1" parent="1">
          <mxGeometry x="540" y="500" width="500" height="20" as="geometry" />
        </mxCell>
        <mxCell id="SSzirsHwd83_Kd0qUwTy-58" value="" style="rounded=0;whiteSpace=wrap;html=1;strokeColor=none;fillColor=#E6E6E6;" vertex="1" parent="1">
          <mxGeometry x="540" y="440" width="500" height="20" as="geometry" />
        </mxCell>
        <mxCell id="SSzirsHwd83_Kd0qUwTy-59" value="" style="rounded=0;whiteSpace=wrap;html=1;strokeColor=none;fillColor=#E6E6E6;" vertex="1" parent="1">
          <mxGeometry x="540" y="380" width="500" height="20" as="geometry" />
        </mxCell>
        <mxCell id="SSzirsHwd83_Kd0qUwTy-61" value="" style="rounded=0;whiteSpace=wrap;html=1;strokeColor=none;fillColor=#E6E6E6;" vertex="1" parent="1">
          <mxGeometry x="540" y="620" width="500" height="20" as="geometry" />
        </mxCell>
        <mxCell id="SSzirsHwd83_Kd0qUwTy-62" value="" style="rounded=0;whiteSpace=wrap;html=1;strokeColor=none;fillColor=#E6E6E6;" vertex="1" parent="1">
          <mxGeometry x="540" y="560" width="500" height="20" as="geometry" />
        </mxCell>
        <mxCell id="SSzirsHwd83_Kd0qUwTy-63" value="" style="rounded=0;whiteSpace=wrap;html=1;strokeColor=none;fillColor=#E6E6E6;" vertex="1" parent="1">
          <mxGeometry x="640" y="220" width="20" height="460" as="geometry" />
        </mxCell>
        <mxCell id="SSzirsHwd83_Kd0qUwTy-64" value="" style="rounded=0;whiteSpace=wrap;html=1;strokeColor=none;fillColor=#E6E6E6;" vertex="1" parent="1">
          <mxGeometry x="540" y="220" width="20" height="460" as="geometry" />
        </mxCell>
        <mxCell id="SSzirsHwd83_Kd0qUwTy-65" value="" style="rounded=0;whiteSpace=wrap;html=1;strokeColor=none;fillColor=#E6E6E6;" vertex="1" parent="1">
          <mxGeometry x="740" y="220" width="20" height="460" as="geometry" />
        </mxCell>
        <mxCell id="SSzirsHwd83_Kd0qUwTy-66" value="" style="rounded=0;whiteSpace=wrap;html=1;strokeColor=none;fillColor=#E6E6E6;" vertex="1" parent="1">
          <mxGeometry x="840" y="220" width="20" height="460" as="geometry" />
        </mxCell>
        <mxCell id="SSzirsHwd83_Kd0qUwTy-67" value="" style="rounded=0;whiteSpace=wrap;html=1;strokeColor=none;fillColor=#E6E6E6;" vertex="1" parent="1">
          <mxGeometry x="940" y="220" width="20" height="460" as="geometry" />
        </mxCell>
        <mxCell id="SSzirsHwd83_Kd0qUwTy-6" value="" style="rounded=0;whiteSpace=wrap;html=1;" vertex="1" parent="1">
          <mxGeometry x="560" y="220" width="80" height="40" as="geometry" />
        </mxCell>
        <mxCell id="SSzirsHwd83_Kd0qUwTy-7" value="" style="rounded=0;whiteSpace=wrap;html=1;" vertex="1" parent="1">
          <mxGeometry x="660" y="220" width="80" height="40" as="geometry" />
        </mxCell>
        <mxCell id="SSzirsHwd83_Kd0qUwTy-8" value="" style="rounded=0;whiteSpace=wrap;html=1;" vertex="1" parent="1">
          <mxGeometry x="760" y="220" width="80" height="40" as="geometry" />
        </mxCell>
        <mxCell id="SSzirsHwd83_Kd0qUwTy-9" value="" style="rounded=0;whiteSpace=wrap;html=1;fillColor=#e1ffe0;" vertex="1" parent="1">
          <mxGeometry x="860" y="220" width="80" height="40" as="geometry" />
        </mxCell>
        <mxCell id="SSzirsHwd83_Kd0qUwTy-10" value="" style="rounded=0;whiteSpace=wrap;html=1;fillColor=#e1ffe0;" vertex="1" parent="1">
          <mxGeometry x="960" y="220" width="80" height="40" as="geometry" />
        </mxCell>
        <mxCell id="SSzirsHwd83_Kd0qUwTy-11" value="" style="rounded=0;whiteSpace=wrap;html=1;" vertex="1" parent="1">
          <mxGeometry x="560" y="280" width="80" height="40" as="geometry" />
        </mxCell>
        <mxCell id="SSzirsHwd83_Kd0qUwTy-12" value="" style="rounded=0;whiteSpace=wrap;html=1;" vertex="1" parent="1">
          <mxGeometry x="660" y="280" width="80" height="40" as="geometry" />
        </mxCell>
        <mxCell id="SSzirsHwd83_Kd0qUwTy-13" value="" style="rounded=0;whiteSpace=wrap;html=1;" vertex="1" parent="1">
          <mxGeometry x="760" y="280" width="80" height="40" as="geometry" />
        </mxCell>
        <mxCell id="SSzirsHwd83_Kd0qUwTy-14" value="" style="rounded=0;whiteSpace=wrap;html=1;fillColor=#e1ffe0;" vertex="1" parent="1">
          <mxGeometry x="860" y="280" width="80" height="40" as="geometry" />
        </mxCell>
        <mxCell id="SSzirsHwd83_Kd0qUwTy-15" value="" style="rounded=0;whiteSpace=wrap;html=1;fillColor=#e1ffe0;" vertex="1" parent="1">
          <mxGeometry x="960" y="280" width="80" height="40" as="geometry" />
        </mxCell>
        <mxCell id="SSzirsHwd83_Kd0qUwTy-24" value="" style="rounded=0;whiteSpace=wrap;html=1;" vertex="1" parent="1">
          <mxGeometry x="560" y="340" width="80" height="40" as="geometry" />
        </mxCell>
        <mxCell id="SSzirsHwd83_Kd0qUwTy-25" value="" style="rounded=0;whiteSpace=wrap;html=1;" vertex="1" parent="1">
          <mxGeometry x="660" y="340" width="80" height="40" as="geometry" />
        </mxCell>
        <mxCell id="SSzirsHwd83_Kd0qUwTy-26" value="" style="rounded=0;whiteSpace=wrap;html=1;" vertex="1" parent="1">
          <mxGeometry x="760" y="340" width="80" height="40" as="geometry" />
        </mxCell>
        <mxCell id="SSzirsHwd83_Kd0qUwTy-27" value="" style="rounded=0;whiteSpace=wrap;html=1;fillColor=#e1ffe0;" vertex="1" parent="1">
          <mxGeometry x="860" y="340" width="80" height="40" as="geometry" />
        </mxCell>
        <mxCell id="SSzirsHwd83_Kd0qUwTy-28" value="" style="rounded=0;whiteSpace=wrap;html=1;fillColor=#e1ffe0;" vertex="1" parent="1">
          <mxGeometry x="960" y="340" width="80" height="40" as="geometry" />
        </mxCell>
        <mxCell id="SSzirsHwd83_Kd0qUwTy-29" value="" style="rounded=0;whiteSpace=wrap;html=1;" vertex="1" parent="1">
          <mxGeometry x="560" y="400" width="80" height="40" as="geometry" />
        </mxCell>
        <mxCell id="SSzirsHwd83_Kd0qUwTy-30" value="" style="rounded=0;whiteSpace=wrap;html=1;" vertex="1" parent="1">
          <mxGeometry x="660" y="400" width="80" height="40" as="geometry" />
        </mxCell>
        <mxCell id="SSzirsHwd83_Kd0qUwTy-31" value="" style="rounded=0;whiteSpace=wrap;html=1;" vertex="1" parent="1">
          <mxGeometry x="760" y="400" width="80" height="40" as="geometry" />
        </mxCell>
        <mxCell id="SSzirsHwd83_Kd0qUwTy-32" value="" style="rounded=0;whiteSpace=wrap;html=1;fillColor=#e1ffe0;" vertex="1" parent="1">
          <mxGeometry x="860" y="400" width="80" height="40" as="geometry" />
        </mxCell>
        <mxCell id="SSzirsHwd83_Kd0qUwTy-33" value="" style="rounded=0;whiteSpace=wrap;html=1;fillColor=#e1ffe0;" vertex="1" parent="1">
          <mxGeometry x="960" y="400" width="80" height="40" as="geometry" />
        </mxCell>
        <mxCell id="SSzirsHwd83_Kd0qUwTy-34" value="" style="rounded=0;whiteSpace=wrap;html=1;fillColor=#f9ffcc;" vertex="1" parent="1">
          <mxGeometry x="560" y="460" width="80" height="40" as="geometry" />
        </mxCell>
        <mxCell id="SSzirsHwd83_Kd0qUwTy-35" value="" style="rounded=0;whiteSpace=wrap;html=1;fillColor=#f9ffcc;" vertex="1" parent="1">
          <mxGeometry x="660" y="460" width="80" height="40" as="geometry" />
        </mxCell>
        <mxCell id="SSzirsHwd83_Kd0qUwTy-36" value="" style="rounded=0;whiteSpace=wrap;html=1;" vertex="1" parent="1">
          <mxGeometry x="760" y="460" width="80" height="40" as="geometry" />
        </mxCell>
        <mxCell id="SSzirsHwd83_Kd0qUwTy-37" value="" style="rounded=0;whiteSpace=wrap;html=1;" vertex="1" parent="1">
          <mxGeometry x="860" y="460" width="80" height="40" as="geometry" />
        </mxCell>
        <mxCell id="SSzirsHwd83_Kd0qUwTy-38" value="" style="rounded=0;whiteSpace=wrap;html=1;" vertex="1" parent="1">
          <mxGeometry x="960" y="460" width="80" height="40" as="geometry" />
        </mxCell>
        <mxCell id="SSzirsHwd83_Kd0qUwTy-39" value="" style="rounded=0;whiteSpace=wrap;html=1;fillColor=#f9ffcc;" vertex="1" parent="1">
          <mxGeometry x="560" y="520" width="80" height="40" as="geometry" />
        </mxCell>
        <mxCell id="SSzirsHwd83_Kd0qUwTy-40" value="" style="rounded=0;whiteSpace=wrap;html=1;fillColor=#f9ffcc;" vertex="1" parent="1">
          <mxGeometry x="660" y="520" width="80" height="40" as="geometry" />
        </mxCell>
        <mxCell id="SSzirsHwd83_Kd0qUwTy-41" value="" style="rounded=0;whiteSpace=wrap;html=1;" vertex="1" parent="1">
          <mxGeometry x="760" y="520" width="80" height="40" as="geometry" />
        </mxCell>
        <mxCell id="SSzirsHwd83_Kd0qUwTy-42" value="" style="rounded=0;whiteSpace=wrap;html=1;" vertex="1" parent="1">
          <mxGeometry x="860" y="520" width="80" height="40" as="geometry" />
        </mxCell>
        <mxCell id="SSzirsHwd83_Kd0qUwTy-43" value="" style="rounded=0;whiteSpace=wrap;html=1;" vertex="1" parent="1">
          <mxGeometry x="960" y="520" width="80" height="40" as="geometry" />
        </mxCell>
        <mxCell id="SSzirsHwd83_Kd0qUwTy-44" value="" style="rounded=0;whiteSpace=wrap;html=1;fillColor=#f9ffcc;" vertex="1" parent="1">
          <mxGeometry x="560" y="580" width="80" height="40" as="geometry" />
        </mxCell>
        <mxCell id="SSzirsHwd83_Kd0qUwTy-45" value="" style="rounded=0;whiteSpace=wrap;html=1;fillColor=#f9ffcc;" vertex="1" parent="1">
          <mxGeometry x="660" y="580" width="80" height="40" as="geometry" />
        </mxCell>
        <mxCell id="SSzirsHwd83_Kd0qUwTy-46" value="" style="rounded=0;whiteSpace=wrap;html=1;" vertex="1" parent="1">
          <mxGeometry x="760" y="580" width="80" height="40" as="geometry" />
        </mxCell>
        <mxCell id="SSzirsHwd83_Kd0qUwTy-47" value="" style="rounded=0;whiteSpace=wrap;html=1;" vertex="1" parent="1">
          <mxGeometry x="860" y="580" width="80" height="40" as="geometry" />
        </mxCell>
        <mxCell id="SSzirsHwd83_Kd0qUwTy-48" value="" style="rounded=0;whiteSpace=wrap;html=1;" vertex="1" parent="1">
          <mxGeometry x="960" y="580" width="80" height="40" as="geometry" />
        </mxCell>
        <mxCell id="SSzirsHwd83_Kd0qUwTy-49" value="" style="rounded=0;whiteSpace=wrap;html=1;fillColor=#f9ffcc;" vertex="1" parent="1">
          <mxGeometry x="560" y="640" width="80" height="40" as="geometry" />
        </mxCell>
        <mxCell id="SSzirsHwd83_Kd0qUwTy-50" value="" style="rounded=0;whiteSpace=wrap;html=1;fillColor=#f9ffcc;" vertex="1" parent="1">
          <mxGeometry x="660" y="640" width="80" height="40" as="geometry" />
        </mxCell>
        <mxCell id="SSzirsHwd83_Kd0qUwTy-51" value="" style="rounded=0;whiteSpace=wrap;html=1;" vertex="1" parent="1">
          <mxGeometry x="760" y="640" width="80" height="40" as="geometry" />
        </mxCell>
        <mxCell id="SSzirsHwd83_Kd0qUwTy-52" value="" style="rounded=0;whiteSpace=wrap;html=1;" vertex="1" parent="1">
          <mxGeometry x="860" y="640" width="80" height="40" as="geometry" />
        </mxCell>
        <mxCell id="SSzirsHwd83_Kd0qUwTy-53" value="" style="rounded=0;whiteSpace=wrap;html=1;" vertex="1" parent="1">
          <mxGeometry x="960" y="640" width="80" height="40" as="geometry" />
        </mxCell>
        <mxCell id="SSzirsHwd83_Kd0qUwTy-69" value="Radish Road" style="text;html=1;align=center;verticalAlign=middle;whiteSpace=wrap;rounded=0;fontSize=10;" vertex="1" parent="1">
          <mxGeometry x="540" y="200" width="500" height="20" as="geometry" />
        </mxCell>
        <mxCell id="SSzirsHwd83_Kd0qUwTy-70" value="Spinach Spur" style="text;html=1;align=center;verticalAlign=middle;whiteSpace=wrap;rounded=0;fontSize=10;" vertex="1" parent="1">
          <mxGeometry x="540" y="260" width="500" height="20" as="geometry" />
        </mxCell>
        <mxCell id="SSzirsHwd83_Kd0qUwTy-71" value="Garlic Grove" style="text;html=1;align=center;verticalAlign=middle;whiteSpace=wrap;rounded=0;fontSize=10;" vertex="1" parent="1">
          <mxGeometry x="540" y="380" width="500" height="20" as="geometry" />
        </mxCell>
        <mxCell id="SSzirsHwd83_Kd0qUwTy-72" value="Pumpkin Parkway" style="text;html=1;align=center;verticalAlign=middle;whiteSpace=wrap;rounded=0;fontSize=10;" vertex="1" parent="1">
          <mxGeometry x="540" y="320" width="500" height="20" as="geometry" />
        </mxCell>
        <mxCell id="SSzirsHwd83_Kd0qUwTy-73" value="Onion Alley" style="text;html=1;align=center;verticalAlign=middle;whiteSpace=wrap;rounded=0;fontSize=10;" vertex="1" parent="1">
          <mxGeometry x="540" y="440" width="500" height="20" as="geometry" />
        </mxCell>
        <mxCell id="SSzirsHwd83_Kd0qUwTy-74" value="Chickpea Crossing" style="text;html=1;align=center;verticalAlign=middle;whiteSpace=wrap;rounded=0;fontSize=10;" vertex="1" parent="1">
          <mxGeometry x="540" y="500" width="500" height="20" as="geometry" />
        </mxCell>
        <mxCell id="SSzirsHwd83_Kd0qUwTy-75" value="Pepper Promenade" style="text;html=1;align=center;verticalAlign=middle;whiteSpace=wrap;rounded=0;fontSize=10;" vertex="1" parent="1">
          <mxGeometry x="540" y="560" width="500" height="20" as="geometry" />
        </mxCell>
        <mxCell id="SSzirsHwd83_Kd0qUwTy-76" value="Beetroot Boulevard" style="text;html=1;align=center;verticalAlign=middle;whiteSpace=wrap;rounded=0;fontSize=10;" vertex="1" parent="1">
          <mxGeometry x="540" y="620" width="500" height="20" as="geometry" />
        </mxCell>
        <mxCell id="SSzirsHwd83_Kd0qUwTy-79" value="Artichoke Alley" style="text;html=1;align=center;verticalAlign=middle;whiteSpace=wrap;rounded=0;fontSize=10;rotation=90;" vertex="1" parent="1">
          <mxGeometry x="300" y="440" width="500" height="20" as="geometry" />
        </mxCell>
        <mxCell id="SSzirsHwd83_Kd0qUwTy-80" value="Lentil Lane" style="text;html=1;align=center;verticalAlign=middle;whiteSpace=wrap;rounded=0;fontSize=10;rotation=90;" vertex="1" parent="1">
          <mxGeometry x="400" y="440" width="500" height="20" as="geometry" />
        </mxCell>
        <mxCell id="SSzirsHwd83_Kd0qUwTy-81" value="Mushroom Meadow" style="text;html=1;align=center;verticalAlign=middle;whiteSpace=wrap;rounded=0;fontSize=10;rotation=90;" vertex="1" parent="1">
          <mxGeometry x="500" y="440" width="500" height="20" as="geometry" />
        </mxCell>
        <mxCell id="SSzirsHwd83_Kd0qUwTy-82" value="Tomato Trail" style="text;html=1;align=center;verticalAlign=middle;whiteSpace=wrap;rounded=0;fontSize=10;rotation=90;" vertex="1" parent="1">
          <mxGeometry x="600" y="440" width="500" height="20" as="geometry" />
        </mxCell>
        <mxCell id="SSzirsHwd83_Kd0qUwTy-84" value="Basil Boulevard" style="text;html=1;align=center;verticalAlign=middle;whiteSpace=wrap;rounded=0;fontSize=10;rotation=90;" vertex="1" parent="1">
          <mxGeometry x="700" y="440" width="500" height="20" as="geometry" />
        </mxCell>
        <mxCell id="SSzirsHwd83_Kd0qUwTy-85" value="" style="endArrow=classic;startArrow=classic;html=1;rounded=0;entryX=0.25;entryY=0;entryDx=0;entryDy=0;exitX=0.25;exitY=1;exitDx=0;exitDy=0;" edge="1" parent="1" source="SSzirsHwd83_Kd0qUwTy-10" target="SSzirsHwd83_Kd0qUwTy-10">
          <mxGeometry width="50" height="50" relative="1" as="geometry">
            <mxPoint x="960" y="140" as="sourcePoint" />
            <mxPoint x="975" y="220" as="targetPoint" />
          </mxGeometry>
        </mxCell>
        <mxCell id="SSzirsHwd83_Kd0qUwTy-86" value="2m" style="text;html=1;align=left;verticalAlign=middle;whiteSpace=wrap;rounded=0;fontSize=10;" vertex="1" parent="1">
          <mxGeometry x="980" y="230" width="30" height="20" as="geometry" />
        </mxCell>
        <mxCell id="SSzirsHwd83_Kd0qUwTy-87" value="" style="endArrow=classic;startArrow=classic;html=1;rounded=0;entryX=1;entryY=0.25;entryDx=0;entryDy=0;exitX=0;exitY=0.25;exitDx=0;exitDy=0;" edge="1" parent="1" source="SSzirsHwd83_Kd0qUwTy-15" target="SSzirsHwd83_Kd0qUwTy-15">
          <mxGeometry width="50" height="50" relative="1" as="geometry">
            <mxPoint x="990" y="270" as="sourcePoint" />
            <mxPoint x="990" y="230" as="targetPoint" />
          </mxGeometry>
        </mxCell>
        <mxCell id="SSzirsHwd83_Kd0qUwTy-88" value="4m" style="text;html=1;align=center;verticalAlign=middle;whiteSpace=wrap;rounded=0;fontSize=10;" vertex="1" parent="1">
          <mxGeometry x="985" y="290" width="30" height="20" as="geometry" />
        </mxCell>
        <mxCell id="SSzirsHwd83_Kd0qUwTy-91" value="" style="endArrow=classic;startArrow=classic;html=1;rounded=0;entryX=0.3;entryY=0;entryDx=0;entryDy=0;entryPerimeter=0;exitX=1;exitY=0.25;exitDx=0;exitDy=0;strokeWidth=1;endSize=3;startSize=3;" edge="1" parent="1" source="SSzirsHwd83_Kd0qUwTy-27" target="SSzirsHwd83_Kd0qUwTy-84">
          <mxGeometry width="50" height="50" relative="1" as="geometry">
            <mxPoint x="900" y="390" as="sourcePoint" />
            <mxPoint x="950" y="340" as="targetPoint" />
          </mxGeometry>
        </mxCell>
        <mxCell id="SSzirsHwd83_Kd0qUwTy-93" value="1m" style="text;html=1;align=center;verticalAlign=middle;whiteSpace=wrap;rounded=0;fontSize=10;" vertex="1" parent="1">
          <mxGeometry x="935" y="330" width="30" height="20" as="geometry" />
        </mxCell>
        <mxCell id="SSzirsHwd83_Kd0qUwTy-94" value="" style="endArrow=classic;startArrow=classic;html=1;rounded=0;entryX=0.25;entryY=1;entryDx=0;entryDy=0;exitX=0.25;exitY=0;exitDx=0;exitDy=0;endSize=3;startSize=3;" edge="1" parent="1" source="SSzirsHwd83_Kd0qUwTy-33" target="SSzirsHwd83_Kd0qUwTy-28">
          <mxGeometry width="50" height="50" relative="1" as="geometry">
            <mxPoint x="990" y="270" as="sourcePoint" />
            <mxPoint x="990" y="230" as="targetPoint" />
          </mxGeometry>
        </mxCell>
        <mxCell id="SSzirsHwd83_Kd0qUwTy-95" value="1m" style="text;html=1;align=left;verticalAlign=middle;whiteSpace=wrap;rounded=0;fontSize=10;" vertex="1" parent="1">
          <mxGeometry x="985" y="380" width="30" height="20" as="geometry" />
        </mxCell>
        <mxCell id="SSzirsHwd83_Kd0qUwTy-98" value="Radish Road 1&lt;div&gt;Artichoke Alley 1&lt;/div&gt;" style="text;html=1;align=center;verticalAlign=middle;whiteSpace=wrap;rounded=0;fontSize=6;spacingLeft=0;" vertex="1" parent="1">
          <mxGeometry x="560" y="220" width="80" height="40" as="geometry" />
        </mxCell>
        <mxCell id="SSzirsHwd83_Kd0qUwTy-100" value="Radish Road 2&lt;div&gt;Lentil Lane 1&lt;/div&gt;" style="text;html=1;align=center;verticalAlign=middle;whiteSpace=wrap;rounded=0;fontSize=6;spacingLeft=0;" vertex="1" parent="1">
          <mxGeometry x="660" y="220" width="80" height="40" as="geometry" />
        </mxCell>
        <mxCell id="SSzirsHwd83_Kd0qUwTy-101" value="Radish Road 3&lt;div&gt;Mushroom Meadow 1&lt;/div&gt;" style="text;html=1;align=center;verticalAlign=middle;whiteSpace=wrap;rounded=0;fontSize=6;spacingLeft=0;" vertex="1" parent="1">
          <mxGeometry x="760" y="220" width="80" height="40" as="geometry" />
        </mxCell>
        <mxCell id="SSzirsHwd83_Kd0qUwTy-102" value="Spinach Spur 1&lt;div&gt;Artichoke Alley 2&lt;/div&gt;" style="text;html=1;align=center;verticalAlign=middle;whiteSpace=wrap;rounded=0;fontSize=6;spacingLeft=0;" vertex="1" parent="1">
          <mxGeometry x="560" y="280" width="80" height="40" as="geometry" />
        </mxCell>
        <mxCell id="SSzirsHwd83_Kd0qUwTy-103" value="Spinach Spur 2&lt;div&gt;Lentil Lane 2&lt;/div&gt;" style="text;html=1;align=center;verticalAlign=middle;whiteSpace=wrap;rounded=0;fontSize=6;spacingLeft=0;" vertex="1" parent="1">
          <mxGeometry x="660" y="280" width="80" height="40" as="geometry" />
        </mxCell>
        <mxCell id="SSzirsHwd83_Kd0qUwTy-104" value="Spinach Spur 3&lt;div&gt;Mushroom Meadow 2&lt;/div&gt;" style="text;html=1;align=center;verticalAlign=middle;whiteSpace=wrap;rounded=0;fontSize=6;spacingLeft=0;" vertex="1" parent="1">
          <mxGeometry x="760" y="280" width="80" height="40" as="geometry" />
        </mxCell>
        <mxCell id="SSzirsHwd83_Kd0qUwTy-105" value="Beetroot Boulevard 5&lt;div&gt;Basil Boulevard 8&lt;/div&gt;" style="text;html=1;align=center;verticalAlign=middle;whiteSpace=wrap;rounded=0;fontSize=6;spacingLeft=0;" vertex="1" parent="1">
          <mxGeometry x="960" y="640" width="80" height="40" as="geometry" />
        </mxCell>
        <mxCell id="SSzirsHwd83_Kd0qUwTy-106" value="Pepper Promenade 5&lt;div&gt;Basil Boulevard 7&lt;/div&gt;" style="text;html=1;align=center;verticalAlign=middle;whiteSpace=wrap;rounded=0;fontSize=6;spacingLeft=0;" vertex="1" parent="1">
          <mxGeometry x="960" y="580" width="80" height="40" as="geometry" />
        </mxCell>
        <mxCell id="SSzirsHwd83_Kd0qUwTy-107" value="Chickpea Crossing 5&lt;div&gt;Basil Boulevard 6&lt;/div&gt;" style="text;html=1;align=center;verticalAlign=middle;whiteSpace=wrap;rounded=0;fontSize=6;spacingLeft=0;" vertex="1" parent="1">
          <mxGeometry x="960" y="520" width="80" height="40" as="geometry" />
        </mxCell>
        <mxCell id="SSzirsHwd83_Kd0qUwTy-108" value="Chickpea Crossing 4&lt;div&gt;Tomato Trail 6&lt;/div&gt;" style="text;html=1;align=center;verticalAlign=middle;whiteSpace=wrap;rounded=0;fontSize=6;spacingLeft=0;" vertex="1" parent="1">
          <mxGeometry x="860" y="520" width="80" height="40" as="geometry" />
        </mxCell>
        <mxCell id="SSzirsHwd83_Kd0qUwTy-109" value="Pepper Promenade 4&lt;div&gt;Tomato Trail 7&lt;/div&gt;" style="text;html=1;align=center;verticalAlign=middle;whiteSpace=wrap;rounded=0;fontSize=6;spacingLeft=0;" vertex="1" parent="1">
          <mxGeometry x="860" y="580" width="80" height="40" as="geometry" />
        </mxCell>
        <mxCell id="SSzirsHwd83_Kd0qUwTy-110" value="Beetroot Boulevard 4&lt;div&gt;Tomato Trail 8&lt;/div&gt;" style="text;html=1;align=center;verticalAlign=middle;whiteSpace=wrap;rounded=0;fontSize=6;spacingLeft=0;" vertex="1" parent="1">
          <mxGeometry x="860" y="640" width="80" height="40" as="geometry" />
        </mxCell>
        <mxCell id="SSzirsHwd83_Kd0qUwTy-111" value="1" style="text;html=1;align=center;verticalAlign=middle;whiteSpace=wrap;rounded=0;fontSize=10;" vertex="1" parent="1">
          <mxGeometry x="560" y="170" width="80" height="20" as="geometry" />
        </mxCell>
        <mxCell id="SSzirsHwd83_Kd0qUwTy-112" value="2" style="text;html=1;align=center;verticalAlign=middle;whiteSpace=wrap;rounded=0;fontSize=10;" vertex="1" parent="1">
          <mxGeometry x="660" y="170" width="80" height="20" as="geometry" />
        </mxCell>
        <mxCell id="SSzirsHwd83_Kd0qUwTy-113" value="3" style="text;html=1;align=center;verticalAlign=middle;whiteSpace=wrap;rounded=0;fontSize=10;" vertex="1" parent="1">
          <mxGeometry x="760" y="170" width="80" height="20" as="geometry" />
        </mxCell>
        <mxCell id="SSzirsHwd83_Kd0qUwTy-114" value="4" style="text;html=1;align=center;verticalAlign=middle;whiteSpace=wrap;rounded=0;fontSize=10;" vertex="1" parent="1">
          <mxGeometry x="860" y="170" width="80" height="20" as="geometry" />
        </mxCell>
        <mxCell id="SSzirsHwd83_Kd0qUwTy-115" value="5" style="text;html=1;align=center;verticalAlign=middle;whiteSpace=wrap;rounded=0;fontSize=10;" vertex="1" parent="1">
          <mxGeometry x="960" y="170" width="80" height="20" as="geometry" />
        </mxCell>
        <mxCell id="SSzirsHwd83_Kd0qUwTy-116" value="1" style="text;html=1;align=right;verticalAlign=middle;whiteSpace=wrap;rounded=0;fontSize=10;" vertex="1" parent="1">
          <mxGeometry x="500" y="230" width="30" height="20" as="geometry" />
        </mxCell>
        <mxCell id="SSzirsHwd83_Kd0qUwTy-117" value="2" style="text;html=1;align=right;verticalAlign=middle;whiteSpace=wrap;rounded=0;fontSize=10;" vertex="1" parent="1">
          <mxGeometry x="500" y="290" width="30" height="20" as="geometry" />
        </mxCell>
        <mxCell id="SSzirsHwd83_Kd0qUwTy-118" value="4" style="text;html=1;align=right;verticalAlign=middle;whiteSpace=wrap;rounded=0;fontSize=10;" vertex="1" parent="1">
          <mxGeometry x="500" y="410" width="30" height="20" as="geometry" />
        </mxCell>
        <mxCell id="SSzirsHwd83_Kd0qUwTy-119" value="3" style="text;html=1;align=right;verticalAlign=middle;whiteSpace=wrap;rounded=0;fontSize=10;" vertex="1" parent="1">
          <mxGeometry x="500" y="350" width="30" height="20" as="geometry" />
        </mxCell>
        <mxCell id="SSzirsHwd83_Kd0qUwTy-120" value="6" style="text;html=1;align=right;verticalAlign=middle;whiteSpace=wrap;rounded=0;fontSize=10;" vertex="1" parent="1">
          <mxGeometry x="500" y="520" width="30" height="20" as="geometry" />
        </mxCell>
        <mxCell id="SSzirsHwd83_Kd0qUwTy-121" value="5" style="text;html=1;align=right;verticalAlign=middle;whiteSpace=wrap;rounded=0;fontSize=10;" vertex="1" parent="1">
          <mxGeometry x="500" y="460" width="30" height="20" as="geometry" />
        </mxCell>
        <mxCell id="SSzirsHwd83_Kd0qUwTy-122" value="8" style="text;html=1;align=right;verticalAlign=middle;whiteSpace=wrap;rounded=0;fontSize=10;" vertex="1" parent="1">
          <mxGeometry x="500" y="650" width="30" height="20" as="geometry" />
        </mxCell>
        <mxCell id="SSzirsHwd83_Kd0qUwTy-123" value="7" style="text;html=1;align=right;verticalAlign=middle;whiteSpace=wrap;rounded=0;fontSize=10;" vertex="1" parent="1">
          <mxGeometry x="500" y="590" width="30" height="20" as="geometry" />
        </mxCell>
      </root>
    </mxGraphModel>
  </diagram>
</mxfile>
